# xmcd
#
# Track frame offsets: 
#        182
#        23225
#        43157
#        64912
#        88377
#        109160
#        127997
#        149130
#        168472
#        187780
#        214875
#        240275
#        262670
#        285570
#        303190
#        330890
#
# Disc length: 4735 seconds
#
# Revision: 2
# Processed by: cddbd v1.5.2PL0 Copyright (c) Steve Scherf et al.
# Submitted via: ExactAudioCopy v0.99pb4
#
DISCID=df127d10
DTITLE=Howard Hewett - The Very Best of
DYEAR=2001
DGENRE=R&B
TTITLE0=This Is for the Lover in You (With Shalamar)
TTITLE1=Somewhere There's a Love (With Shalamar)
TTITLE2=I'm for Real
TTITLE3=Stay
TTITLE4=Say Amen
TTITLE5=I Commit to Love
TTITLE6=I Got 2 Go
TTITLE7=Once, Twice, Three Times
TTITLE8=Strange Relationship
TTITLE9=Heaven Sent You (With Stanley Clarke)
TTITLE10=Show Me
TTITLE11=If I Could Only Have That Day Back
TTITLE12=When Will It Be
TTITLE13=I Can't Tell You Why
TTITLE14=Just Like a Woman
TTITLE15=Can We Try Again
EXTD=
EXTT0=
EXTT1=
EXTT2=
EXTT3=
EXTT4=
EXTT5=
EXTT6=
EXTT7=
EXTT8=
EXTT9=
EXTT10=
EXTT11=
EXTT12=
EXTT13=
EXTT14=
EXTT15=
PLAYORDER=
